<svg width="22" height="22" viewBox="0 0 22 22" fill="none" xmlns="http://www.w3.org/2000/svg">
<path d="M10.0833 6.41666H11.9166V8.24999H10.0833V6.41666ZM10.0833 10.0833H11.9166V15.5833H10.0833V10.0833ZM11 1.83333C5.93998 1.83333 1.83331 5.93999 1.83331 11C1.83331 16.06 5.93998 20.1667 11 20.1667C16.06 20.1667 20.1666 16.06 20.1666 11C20.1666 5.93999 16.06 1.83333 11 1.83333ZM11 18.3333C6.95748 18.3333 3.66665 15.0425 3.66665 11C3.66665 6.95749 6.95748 3.66666 11 3.66666C15.0425 3.66666 18.3333 6.95749 18.3333 11C18.3333 15.0425 15.0425 18.3333 11 18.3333Z" fill="black" fill-opacity="0.38"/>
</svg>
